HIERARCHY
ROOT Hips
{
  OFFSET 45.2707 90.5993 -19.6783
  CHANNELS 6 Xposition Yposition Zposition Zrotation Xrotation Yrotation
  JOINT Chest
  {
    OFFSET 1.23234e-007 14.8421 1.27318e-009
    CHANNELS 6 Xposition Yposition Zposition Zrotation Xrotation Yrotation
    JOINT Neck
    {
      OFFSET 0.51659 29.8236 6.51843
      CHANNELS 6 Xposition Yposition Zposition Zrotation Xrotation Yrotation
      JOINT Head
      {
        OFFSET 1.16803e-007 7.47049 6.44171e-007
        CHANNELS 6 Xposition Yposition Zposition Zrotation Xrotation Yrotation
        End Site
        {
          OFFSET -4.32676e-008 16.2908 2.16786e-007
        }
      }
    }
    JOINT LeftCollar
    {
      OFFSET 6.64893 27.3161 3.27471
      CHANNELS 6 Xposition Yposition Zposition Zrotation Xrotation Yrotation
      JOINT LeftUpArm
      {
        OFFSET 10.8584 2.41798 -0.945791
        CHANNELS 6 Xposition Yposition Zposition Zrotation Xrotation Yrotation
        JOINT LeftLowArm
        {
          OFFSET 3.77631 -24.5904 -1.70468
          CHANNELS 6 Xposition Yposition Zposition Zrotation Xrotation Yrotation
          JOINT LeftHand
          {
            OFFSET 1.01026 -21.1231 1.74131
            CHANNELS 6 Xposition Yposition Zposition Zrotation Xrotation Yrotation
            End Site
            {
              OFFSET 1.17583e-006 -9.81266 -2.89439e-008
            }
          }
        }
      }
    }
    JOINT RightCollar
    {
      OFFSET -6.11406 27.2248 4.23427
      CHANNELS 6 Xposition Yposition Zposition Zrotation Xrotation Yrotation
      JOINT RightUpArm
      {
        OFFSET -10.4566 2.3285 -0.910794
        CHANNELS 6 Xposition Yposition Zposition Zrotation Xrotation Yrotation
        JOINT RightLowArm
        {
          OFFSET -3.86856 -25.191 -1.74633
          CHANNELS 6 Xposition Yposition Zposition Zrotation Xrotation Yrotation
          JOINT RightHand
          {
            OFFSET -1.04759 -20.6242 1.75213
            CHANNELS 6 Xposition Yposition Zposition Zrotation Xrotation Yrotation
            End Site
            {
              OFFSET -2.03487e-006 -9.50367 -4.31372e-006
            }
          }
        }
      }
    }
  }
  JOINT LeftUpLeg
  {
    OFFSET 9 -3.38008e-006 -5.22999e-009
    CHANNELS 6 Xposition Yposition Zposition Zrotation Xrotation Yrotation
    JOINT LeftLowLeg
    {
      OFFSET -0.575 -51.431 3.90177
      CHANNELS 6 Xposition Yposition Zposition Zrotation Xrotation Yrotation
      JOINT LeftFoot
      {
        OFFSET 2.13082e-007 -43.5882 -3.90177
        CHANNELS 6 Xposition Yposition Zposition Zrotation Xrotation Yrotation
        End Site
        {
          OFFSET 7.44796e-007 -6.93413 15.0046
        }
      }
    }
  }
  JOINT RightUpLeg
  {
    OFFSET -9 6.86154e-007 -3.1954e-009
    CHANNELS 6 Xposition Yposition Zposition Zrotation Xrotation Yrotation
    JOINT RightLowLeg
    {
      OFFSET 0.575 -51.4311 3.90177
      CHANNELS 6 Xposition Yposition Zposition Zrotation Xrotation Yrotation
      JOINT RightFoot
      {
        OFFSET -7.46079e-007 -43.5882 -3.90177
        CHANNELS 6 Xposition Yposition Zposition Zrotation Xrotation Yrotation
        End Site
        {
          OFFSET 4.66716e-007 -6.93413 15.0046
        }
      }
    }
  }
}
MOTION
Frames:	8
Frame Time:	0.0333333
46.9113 94.6983 -18.5094 -0.364901 -5.47616 -2.31277 1.23234e-007 14.8421 1.27318e-009 -4.385 21.9138 -28.2638 0.51659 29.8236 6.51843 11.6702 -21.7972 -5.09057 1.16803e-007 7.47049 6.44171e-007 -6.96033 20.1947 -0.240066 6.64893 27.3161 3.27471 -2.94784 5.93879 -4.20517 10.8584 2.41798 -0.945791 43.0582 -43.8469 -2.45505 3.77631 -24.5904 -1.70468 12.0324 -0.927117 -47.8647 1.01026 -21.1231 1.74131 -8.0164 -4.95106 -2.01326 -6.11406 27.2248 4.23427 -1.96452 7.32629 3.42623 -10.4566 2.3285 -0.910794 98.6932 -24.0642 149.179 -3.86856 -25.191 -1.74633 97.2798 -61.5614 52.6154 -1.04759 -20.6242 1.75213 31.5012 3.30576 3.02878 9 -3.38008e-006 -5.22999e-009 12.1398 -10.492 14.5866 -0.575 -51.431 3.90177 1.68657 36.5016 -24.0445 2.13082e-007 -43.5882 -3.90177 7.67098 -12.0063 -0.0187339 -9 6.86154e-007 -3.1954e-009 -16.3623 -10.2308 -20.4129 0.575 -51.4311 3.90177 -7.94609 33.389 22.6194 -7.46079e-007 -43.5882 -3.90177 -6.715 -9.032 0.204169 
46.7436 94.7532 -18.4474 -0.607539 -5.45096 -1.6812 1.23234e-007 14.8421 1.27318e-009 -4.12435 21.9975 -28.2514 0.51659 29.8236 6.51843 12.4933 -22.7588 -5.57955 1.16803e-007 7.47049 6.44171e-007 -8.18 21.5784 -0.142062 6.64893 27.3161 3.27471 -2.94784 5.93879 -4.20517 10.8584 2.41798 -0.945791 42.9167 -44.4605 -2.51173 3.77631 -24.5904 -1.70468 12.3891 -1.09468 -46.5672 1.01026 -21.1231 1.74131 -8.88744 -5.82481 -2.28018 -6.11406 27.2248 4.23427 -1.96452 7.32629 3.42623 -10.4566 2.3285 -0.910794 97.9081 -22.8745 149.274 -3.86856 -25.191 -1.74633 100.04 -61.4323 54.7574 -1.04759 -20.6242 1.75213 29.2968 1.39093 3.44333 9 -3.38008e-006 -5.22999e-009 12.4383 -10.5984 14.6089 -0.575 -51.431 3.90177 1.89302 36.3717 -24.7393 2.13082e-007 -43.5882 -3.90177 7.69242 -11.923 -0.0238429 -9 6.86154e-007 -3.1954e-009 -16.0791 -9.87667 -20.4899 0.575 -51.4311 3.90177 -7.65273 33.2738 21.9358 -7.46079e-007 -43.5882 -3.90177 -6.6951 -9.06828 0.202352 
46.6333 94.7605 -18.3961 -0.699708 -5.57151 -1.13773 1.23234e-007 14.8421 1.27318e-009 -3.95257 22.1158 -28.1923 0.51659 29.8236 6.51843 11.7797 -23.0323 -6.17346 1.16803e-007 7.47049 6.44171e-007 -7.58822 22.1158 -0.96815 6.64893 27.3161 3.27471 -2.94784 5.93879 -4.20517 10.8584 2.41798 -0.945791 42.8296 -44.9877 -2.39803 3.77631 -24.5904 -1.70468 12.3823 -1.11616 -45.5472 1.01026 -21.1231 1.74131 -9.01984 -5.52177 -2.26283 -6.11406 27.2248 4.23427 -1.96452 7.32629 3.42623 -10.4566 2.3285 -0.910794 96.373 -22.7365 148.014 -3.86856 -25.191 -1.74633 100.914 -61.6687 55.919 -1.04759 -20.6242 1.75213 29.298 1.32201 3.46262 9 -3.38008e-006 -5.22999e-009 12.4954 -10.6022 14.449 -0.575 -51.431 3.90177 2.12897 36.3356 -25.2652 2.13082e-007 -43.5882 -3.90177 7.71673 -11.8964 -0.0253973 -9 6.86154e-007 -3.1954e-009 -16.0332 -9.49444 -20.6899 0.575 -51.4311 3.90177 -7.40123 33.2758 21.5189 -7.46079e-007 -43.5882 -3.90177 -6.68231 -9.07711 0.201832 
46.5085 94.7297 -18.412 -0.777145 -5.55025 -0.683457 1.23234e-007 14.8421 1.27318e-009 -3.41052 22.5019 -27.9417 0.51659 29.8236 6.51843 10.2841 -24.7039 -6.54134 1.16803e-007 7.47049 6.44171e-007 -6.61402 23.5796 -1.90769 6.64893 27.3161 3.27471 -2.94784 5.93879 -4.20517 10.8584 2.41798 -0.945791 42.6997 -45.7246 -1.99358 3.77631 -24.5904 -1.70468 12.3874 -1.14237 -42.6311 1.01026 -21.1231 1.74131 -8.28223 -5.05179 -2.07041 -6.11406 27.2248 4.23427 -1.96452 7.32629 3.42623 -10.4566 2.3285 -0.910794 94.6843 -22.9805 146.514 -3.86856 -25.191 -1.74633 100.027 -61.967 55.0527 -1.04759 -20.6242 1.75213 29.0584 1.49216 3.37751 9 -3.38008e-006 -5.22999e-009 12.5751 -10.8159 14.3188 -0.575 -51.431 3.90177 2.33887 36.4121 -25.6649 2.13082e-007 -43.5882 -3.90177 7.73664 -11.8899 -0.0257068 -9 6.86154e-007 -3.1954e-009 -15.9609 -9.4275 -20.7962 0.575 -51.4311 3.90177 -7.28865 33.4705 21.0983 -7.46079e-007 -43.5882 -3.90177 -6.68275 -9.17078 0.197702 
46.4205 94.7051 -18.4039 -0.88186 -5.55123 -0.166427 1.23234e-007 14.8421 1.27318e-009 -3.22472 22.6727 -27.8053 0.51659 29.8236 6.51843 9.65063 -25.7258 -6.83902 1.16803e-007 7.47049 6.44171e-007 -5.89197 24.232 -2.56072 6.64893 27.3161 3.27471 -2.94784 5.93879 -4.20517 10.8584 2.41798 -0.945791 42.1632 -45.9998 -1.31858 3.77631 -24.5904 -1.70468 12.8659 -1.39371 -39.0092 1.01026 -21.1231 1.74131 -8.02614 -5.13754 -2.03857 -6.11406 27.2248 4.23427 -1.96452 7.32629 3.42623 -10.4566 2.3285 -0.910794 93.02 -25.1301 144.173 -3.86856 -25.191 -1.74633 100.271 -61.8169 55.2781 -1.04759 -20.6242 1.75213 29.4065 1.13631 3.53684 9 -3.38008e-006 -5.22999e-009 12.6734 -11.0242 14.2025 -0.575 -51.431 3.90177 2.55777 36.5267 -26.1517 2.13082e-007 -43.5882 -3.90177 7.77396 -11.8808 -0.0261054 -9 6.86154e-007 -3.1954e-009 -15.9192 -9.27485 -20.9799 0.575 -51.4311 3.90177 -7.09582 33.6387 20.6954 -7.46079e-007 -43.5882 -3.90177 -6.69194 -9.25632 0.194 
46.3596 94.6471 -18.4335 -0.947245 -5.58903 0.234966 1.23234e-007 14.8421 1.27318e-009 -3.07419 22.858 -27.5971 0.51659 29.8236 6.51843 8.85155 -26.8536 -6.8934 1.16803e-007 7.47049 6.44171e-007 -5.05901 24.9966 -3.0566 6.64893 27.3161 3.27471 -2.94784 5.93879 -4.20517 10.8584 2.41798 -0.945791 41.3819 -45.9135 -0.313728 3.77631 -24.5904 -1.70468 13.357 -2.05451 -32.4456 1.01026 -21.1231 1.74131 -8.73737 -6.07594 -2.28708 -6.11406 27.2248 4.23427 -1.96452 7.32629 3.42623 -10.4566 2.3285 -0.910794 91.1978 -28.5007 141.305 -3.86856 -25.191 -1.74633 100.459 -61.795 55.8571 -1.04759 -20.6242 1.75213 29.3327 1.42146 3.4341 9 -3.38008e-006 -5.22999e-009 12.7473 -11.2115 14.1263 -0.575 -51.431 3.90177 2.71012 36.6902 -26.5445 2.13082e-007 -43.5882 -3.90177 7.81534 -11.8991 -0.0247007 -9 6.86154e-007 -3.1954e-009 -15.8821 -9.19426 -21.0663 0.575 -51.4311 3.90177 -7.03589 33.8559 20.4458 -7.46079e-007 -43.5882 -3.90177 -6.70669 -9.37521 0.188853 
46.2991 94.5789 -18.4809 -0.982452 -5.74197 0.598069 1.23234e-007 14.8421 1.27318e-009 -3.00046 23.1567 -27.204 0.51659 29.8236 6.51843 7.50327 -27.5049 -6.79564 1.16803e-007 7.47049 6.44171e-007 -3.34589 25.2315 -3.79386 6.64893 27.3161 3.27471 -2.94784 5.93879 -4.20517 10.8584 2.41798 -0.945791 40.5353 -45.4332 1.16225 3.77631 -24.5904 -1.70468 13.2388 -4.0026 -23.5218 1.01026 -21.1231 1.74131 -10.2294 -6.78253 -2.66925 -6.11406 27.2248 4.23427 -1.96452 7.32629 3.42623 -10.4566 2.3285 -0.910794 88.7197 -33.064 137.69 -3.86856 -25.191 -1.74633 101.049 -62.2164 58.4178 -1.04759 -20.6242 1.75213 28.4659 1.52716 3.29392 9 -3.38008e-006 -5.22999e-009 12.8006 -11.2773 14.0634 -0.575 -51.431 3.90177 2.83844 36.8544 -26.8772 2.13082e-007 -43.5882 -3.90177 7.88749 -12.0006 -0.01777 -9 6.86154e-007 -3.1954e-009 -15.8947 -9.03658 -21.1948 0.575 -51.4311 3.90177 -6.96376 34.0718 20.2652 -7.46079e-007 -43.5882 -3.90177 -6.71327 -9.40706 0.187486 
46.2424 94.5311 -18.517 -0.945541 -5.89172 0.932288 1.23234e-007 14.8421 1.27318e-009 -3.37939 23.3319 -26.0539 0.51659 29.8236 6.51843 7.17748 -27.4502 -6.8441 1.16803e-007 7.47049 6.44171e-007 -2.49244 24.569 -4.20847 6.64893 27.3161 3.27471 -2.94784 5.93879 -4.20517 10.8584 2.41798 -0.945791 39.0099 -45.6067 3.0672 3.77631 -24.5904 -1.70468 12.9077 -6.20065 -15.1706 1.01026 -21.1231 1.74131 -13.417 -8.44229 -3.55238 -6.11406 27.2248 4.23427 -1.96452 7.32629 3.42623 -10.4566 2.3285 -0.910794 85.0544 -38.7946 132.344 -3.86856 -25.191 -1.74633 102.717 -62.9708 64.039 -1.04759 -20.6242 1.75213 27.5857 1.67546 3.14375 9 -3.38008e-006 -5.22999e-009 12.7953 -11.3234 13.9855 -0.575 -51.431 3.90177 2.93149 36.9925 -27.2745 2.13082e-007 -43.5882 -3.90177 7.88745 -11.9271 -0.022531 -9 6.86154e-007 -3.1954e-009 -15.9557 -8.86766 -21.3125 0.575 -51.4311 3.90177 -6.93402 34.2587 20.1396 -7.46079e-007 -43.5882 -3.90177 -6.72952 -9.48511 0.184118 
